<svg xmlns="http://www.w3.org/2000/svg" xmlns:xlink="http://www.w3.org/1999/xlink" width="1280" zoomAndPan="magnify" viewBox="0 0 960 540.000001" height="720" preserveAspectRatio="xMidYMid meet" version="1.0"><defs><g/><clipPath id="b345513bbc"><rect x="0" width="951" y="0" height="353"/></clipPath></defs><g transform="matrix(1, 0, 0, 1, 4, 93)"><g clip-path="url(#b345513bbc)"><g fill="#000000" fill-opacity="1"><g transform="translate(1.460723, 127.107375)"><g><path d="M 65.421875 -57.234375 L 65.421875 -65.703125 C 65.421875 -71.390625 66.304688 -76.304688 68.078125 -80.453125 C 69.859375 -84.597656 72.285156 -87.929688 75.359375 -90.453125 C 78.429688 -92.984375 81.953125 -94.703125 85.921875 -95.609375 L 85.921875 -2.734375 C 85.921875 -0.910156 85.007812 0 83.1875 0 L 68.15625 0 C 66.332031 0 65.421875 -0.910156 65.421875 -2.734375 L 65.421875 -38.65625 L 52.59375 -38.65625 C 46.164062 -38.65625 40.867188 -39.875 36.703125 -42.3125 C 32.535156 -44.75 29.632812 -47.925781 28 -51.84375 L 28 -27.1875 C 28 -21.488281 27.125 -16.566406 25.375 -12.421875 C 23.625 -8.285156 21.195312 -4.953125 18.09375 -2.421875 C 15 0.0976562 11.472656 1.816406 7.515625 2.734375 L 7.515625 -90.15625 C 7.515625 -91.976562 8.425781 -92.890625 10.25 -92.890625 L 25.265625 -92.890625 C 27.085938 -92.890625 28 -91.976562 28 -90.15625 L 28 -57.234375 Z M 65.421875 -57.234375 "/></g></g></g><g fill="#000000" fill-opacity="1"><g transform="translate(95.027972, 127.107375)"><g><path d="M 53.40625 -90.703125 L 86.328125 -3.140625 C 86.421875 -2.960938 86.488281 -2.769531 86.53125 -2.5625 C 86.570312 -2.351562 86.59375 -2.179688 86.59375 -2.046875 C 86.59375 -1.453125 86.375 -0.960938 85.9375 -0.578125 C 85.507812 -0.191406 84.910156 0 84.140625 0 L 67.890625 0 C 67.160156 0 66.546875 -0.15625 66.046875 -0.46875 C 65.546875 -0.789062 65.15625 -1.363281 64.875 -2.1875 L 59.484375 -18.71875 L 54.5 -18.71875 C 48.988281 -18.71875 44.4375 -19.773438 40.84375 -21.890625 C 37.25 -24.003906 34.675781 -26.789062 33.125 -30.25 C 30.9375 -23.195312 28.191406 -17.40625 24.890625 -12.875 C 21.585938 -8.34375 17.773438 -4.835938 13.453125 -2.359375 C 9.128906 0.117188 4.375 1.816406 -0.8125 2.734375 L 34.421875 -90.703125 C 35.015625 -92.160156 36.0625 -92.890625 37.5625 -92.890625 L 50.265625 -92.890625 C 51.765625 -92.890625 52.8125 -92.160156 53.40625 -90.703125 Z M 43.984375 -65.84375 L 34.765625 -35.515625 L 53.953125 -35.515625 Z M 43.984375 -65.84375 "/></g></g><g transform="translate(182.175285, 127.107375)"><g><path d="M 67.609375 -16.9375 L 77.3125 -3.28125 C 77.675781 -2.78125 77.859375 -2.28125 77.859375 -1.78125 C 77.859375 -0.59375 77.082031 0 75.53125 0 L 56.140625 0 C 54.867188 0 53.773438 -0.59375 52.859375 -1.78125 L 28.828125 -35.921875 L 27.859375 -35.921875 L 27.859375 -25.8125 C 27.859375 -20.125 26.984375 -15.226562 25.234375 -11.125 C 23.484375 -7.03125 21.054688 -3.8125 17.953125 -1.46875 C 14.859375 0.875 11.332031 2.273438 7.375 2.734375 L 7.375 -90.15625 C 7.375 -91.976562 8.285156 -92.890625 10.109375 -92.890625 L 25.140625 -92.890625 C 25.453125 -92.890625 25.675781 -92.863281 25.8125 -92.8125 L 25.8125 -92.890625 L 38.25 -92.890625 C 46.300781 -92.890625 52.785156 -91.703125 57.703125 -89.328125 C 62.628906 -86.960938 66.195312 -83.601562 68.40625 -79.25 C 70.613281 -74.90625 71.71875 -69.753906 71.71875 -63.796875 C 71.71875 -58.367188 70.703125 -53.617188 68.671875 -49.546875 C 66.648438 -45.472656 63.40625 -42.273438 58.9375 -39.953125 C 54.476562 -37.628906 48.601562 -36.3125 41.3125 -36 C 46.09375 -34.8125 50.703125 -32.691406 55.140625 -29.640625 C 59.585938 -26.585938 63.742188 -22.351562 67.609375 -16.9375 Z M 51.21875 -63.109375 C 51.21875 -65.515625 50.84375 -67.476562 50.09375 -69 C 49.34375 -70.53125 48.375 -71.71875 47.1875 -72.5625 C 46.007812 -73.40625 44.734375 -74.007812 43.359375 -74.375 C 41.992188 -74.738281 40.675781 -74.953125 39.40625 -75.015625 C 38.132812 -75.085938 37.066406 -75.125 36.203125 -75.125 L 27.859375 -75.125 L 27.859375 -50.671875 L 36.203125 -50.671875 C 37.066406 -50.671875 38.125 -50.71875 39.375 -50.8125 C 40.625 -50.90625 41.929688 -51.144531 43.296875 -51.53125 C 44.660156 -51.914062 45.945312 -52.539062 47.15625 -53.40625 C 48.363281 -54.269531 49.34375 -55.488281 50.09375 -57.0625 C 50.84375 -58.632812 51.21875 -60.648438 51.21875 -63.109375 Z M 51.21875 -63.109375 "/></g></g></g><g fill="#000000" fill-opacity="1"><g transform="translate(260.307348, 127.107375)"><g><path d="M 42.75 1.359375 C 35.144531 1.359375 28.632812 -0.0507812 23.21875 -2.875 C 17.800781 -5.695312 13.644531 -9.894531 10.75 -15.46875 C 7.863281 -21.039062 6.421875 -27.953125 6.421875 -36.203125 L 6.421875 -90.15625 C 6.421875 -91.976562 7.332031 -92.890625 9.15625 -92.890625 L 24.171875 -92.890625 C 25.992188 -92.890625 26.90625 -91.976562 26.90625 -90.15625 L 26.90625 -37.296875 C 26.90625 -33.015625 27.367188 -29.378906 28.296875 -26.390625 C 29.234375 -23.410156 30.851562 -21.132812 33.15625 -19.5625 C 35.457031 -17.988281 38.65625 -17.203125 42.75 -17.203125 C 46.9375 -17.203125 50.203125 -17.988281 52.546875 -19.5625 C 54.898438 -21.132812 56.539062 -23.410156 57.46875 -26.390625 C 58.40625 -29.378906 58.875 -33.015625 58.875 -37.296875 L 58.875 -64.328125 C 58.875 -70.023438 59.757812 -74.921875 61.53125 -79.015625 C 63.3125 -83.117188 65.738281 -86.34375 68.8125 -88.6875 C 71.882812 -91.03125 75.398438 -92.429688 79.359375 -92.890625 L 79.359375 -37.296875 C 79.359375 -28.679688 77.910156 -21.503906 75.015625 -15.765625 C 72.128906 -10.035156 67.953125 -5.75 62.484375 -2.90625 C 57.023438 -0.0625 50.445312 1.359375 42.75 1.359375 Z M 42.75 1.359375 "/></g></g><g transform="translate(346.088716, 127.107375)"><g><path d="M 51.359375 1.359375 C 44.078125 1.359375 37.507812 0.222656 31.65625 -2.046875 C 25.800781 -4.328125 20.789062 -7.582031 16.625 -11.8125 C 12.457031 -16.050781 9.257812 -21.117188 7.03125 -27.015625 C 4.800781 -32.910156 3.6875 -39.476562 3.6875 -46.71875 C 3.6875 -54.039062 4.820312 -60.640625 7.09375 -66.515625 C 9.375 -72.390625 12.617188 -77.382812 16.828125 -81.5 C 21.046875 -85.625 26.085938 -88.78125 31.953125 -90.96875 C 37.828125 -93.15625 44.34375 -94.25 51.5 -94.25 C 58.78125 -94.25 65.34375 -93.132812 71.1875 -90.90625 C 77.039062 -88.675781 82.050781 -85.476562 86.21875 -81.3125 C 90.382812 -77.144531 93.582031 -72.132812 95.8125 -66.28125 C 98.050781 -60.425781 99.171875 -53.859375 99.171875 -46.578125 C 99.171875 -39.242188 98.03125 -32.628906 95.75 -26.734375 C 93.476562 -20.835938 90.234375 -15.796875 86.015625 -11.609375 C 81.804688 -7.421875 76.773438 -4.210938 70.921875 -1.984375 C 65.078125 0.242188 58.554688 1.359375 51.359375 1.359375 Z M 51.359375 -17.203125 C 55.179688 -17.203125 58.742188 -17.863281 62.046875 -19.1875 C 65.347656 -20.507812 68.25 -22.445312 70.75 -25 C 73.257812 -27.550781 75.207031 -30.644531 76.59375 -34.28125 C 77.976562 -37.925781 78.671875 -42.070312 78.671875 -46.71875 C 78.671875 -51.3125 77.976562 -55.394531 76.59375 -58.96875 C 75.207031 -62.539062 73.257812 -65.566406 70.75 -68.046875 C 68.25 -70.535156 65.347656 -72.425781 62.046875 -73.71875 C 58.742188 -75.019531 55.179688 -75.671875 51.359375 -75.671875 C 47.628906 -75.671875 44.113281 -75.03125 40.8125 -73.75 C 37.507812 -72.476562 34.613281 -70.601562 32.125 -68.125 C 29.644531 -65.644531 27.695312 -62.601562 26.28125 -59 C 24.875 -55.40625 24.171875 -51.3125 24.171875 -46.71875 C 24.171875 -42.070312 24.875 -37.925781 26.28125 -34.28125 C 27.695312 -30.644531 29.644531 -27.550781 32.125 -25 C 34.613281 -22.445312 37.507812 -20.507812 40.8125 -19.1875 C 44.113281 -17.863281 47.628906 -17.203125 51.359375 -17.203125 Z M 51.359375 -17.203125 "/></g></g></g><g fill="#000000" fill-opacity="1"><g transform="translate(447.30523, 127.107375)"><g><path d="M 97.671875 -90.5625 L 118.5625 -3 C 118.789062 -2.132812 118.675781 -1.414062 118.21875 -0.84375 C 117.757812 -0.28125 117.054688 0 116.109375 0 L 100.53125 0 C 98.800781 0 97.800781 -0.816406 97.53125 -2.453125 L 85.921875 -58.25 L 75.671875 -25.40625 C 74.117188 -20.445312 72.546875 -16.300781 70.953125 -12.96875 C 69.359375 -9.644531 67.695312 -6.9375 65.96875 -4.84375 C 64.238281 -2.75 62.382812 -1.125 60.40625 0.03125 C 58.425781 1.195312 56.273438 2.097656 53.953125 2.734375 L 34.6875 -58.328125 L 28.140625 -26.90625 C 26.773438 -20.21875 24.75 -14.6875 22.0625 -10.3125 C 19.375 -5.9375 16.207031 -2.664062 12.5625 -0.5 C 8.925781 1.65625 4.96875 2.734375 0.6875 2.734375 L 22.953125 -90.5625 C 23.359375 -92.113281 24.359375 -92.890625 25.953125 -92.890625 L 40.015625 -92.890625 C 41.609375 -92.890625 42.613281 -92.113281 43.03125 -90.5625 L 60.171875 -34.828125 L 77.578125 -90.5625 C 77.992188 -92.113281 79 -92.890625 80.59375 -92.890625 L 94.65625 -92.890625 C 96.25 -92.890625 97.253906 -92.113281 97.671875 -90.5625 Z M 97.671875 -90.5625 "/></g></g></g><g fill="#000000" fill-opacity="1"><g transform="translate(567.64501, 127.107375)"><g><path d="M 47.9375 -74.3125 L 37.421875 -74.3125 L 37.421875 -18.578125 L 47.9375 -18.578125 C 49.757812 -18.578125 50.671875 -17.664062 50.671875 -15.84375 L 50.671875 -2.734375 C 50.671875 -0.910156 49.757812 0 47.9375 0 L 6.421875 0 C 4.597656 0 3.6875 -0.910156 3.6875 -2.734375 L 3.6875 -15.84375 C 3.6875 -17.664062 4.597656 -18.578125 6.421875 -18.578125 L 16.9375 -18.578125 L 16.9375 -47.125 C 16.9375 -54.269531 18.3125 -60.15625 21.0625 -64.78125 C 23.820312 -69.40625 27.429688 -72.582031 31.890625 -74.3125 L 6.421875 -74.3125 C 4.597656 -74.3125 3.6875 -75.21875 3.6875 -77.03125 L 3.6875 -90.15625 C 3.6875 -91.976562 4.597656 -92.890625 6.421875 -92.890625 L 47.9375 -92.890625 C 49.757812 -92.890625 50.671875 -91.976562 50.671875 -90.15625 L 50.671875 -77.03125 C 50.671875 -75.21875 49.757812 -74.3125 47.9375 -74.3125 Z M 47.9375 -74.3125 "/></g></g></g><g fill="#000000" fill-opacity="1"><g transform="translate(622.009622, 127.107375)"><g><path d="M 10.71875 -18.578125 L 57.09375 -18.578125 C 58.914062 -18.578125 59.828125 -17.664062 59.828125 -15.84375 L 59.828125 -2.734375 C 59.828125 -0.910156 58.914062 0 57.09375 0 L 10.109375 0 C 8.285156 0 7.375 -0.910156 7.375 -2.734375 L 7.375 -90.15625 C 7.375 -91.976562 8.285156 -92.890625 10.109375 -92.890625 L 25.140625 -92.890625 C 26.953125 -92.890625 27.859375 -91.976562 27.859375 -90.15625 L 27.859375 -49.859375 C 27.859375 -44.253906 27.128906 -39.398438 25.671875 -35.296875 C 24.222656 -31.203125 22.210938 -27.789062 19.640625 -25.0625 C 17.066406 -22.332031 14.09375 -20.171875 10.71875 -18.578125 Z M 10.71875 -18.578125 "/></g></g></g><g fill="#000000" fill-opacity="1"><g transform="translate(682.520998, 127.107375)"><g><path d="M 53.40625 -90.703125 L 86.328125 -3.140625 C 86.421875 -2.960938 86.488281 -2.769531 86.53125 -2.5625 C 86.570312 -2.351562 86.59375 -2.179688 86.59375 -2.046875 C 86.59375 -1.453125 86.375 -0.960938 85.9375 -0.578125 C 85.507812 -0.191406 84.910156 0 84.140625 0 L 67.890625 0 C 67.160156 0 66.546875 -0.15625 66.046875 -0.46875 C 65.546875 -0.789062 65.15625 -1.363281 64.875 -2.1875 L 59.484375 -18.71875 L 54.5 -18.71875 C 48.988281 -18.71875 44.4375 -19.773438 40.84375 -21.890625 C 37.25 -24.003906 34.675781 -26.789062 33.125 -30.25 C 30.9375 -23.195312 28.191406 -17.40625 24.890625 -12.875 C 21.585938 -8.34375 17.773438 -4.835938 13.453125 -2.359375 C 9.128906 0.117188 4.375 1.816406 -0.8125 2.734375 L 34.421875 -90.703125 C 35.015625 -92.160156 36.0625 -92.890625 37.5625 -92.890625 L 50.265625 -92.890625 C 51.765625 -92.890625 52.8125 -92.160156 53.40625 -90.703125 Z M 43.984375 -65.84375 L 34.765625 -35.515625 L 53.953125 -35.515625 Z M 43.984375 -65.84375 "/></g></g></g><g fill="#000000" fill-opacity="1"><g transform="translate(769.668304, 127.107375)"><g><path d="M 57.09375 -49.859375 C 62.695312 -48.441406 66.988281 -45.640625 69.96875 -41.453125 C 72.945312 -37.265625 74.4375 -31.503906 74.4375 -24.171875 C 74.4375 -19.023438 73.296875 -14.539062 71.015625 -10.71875 C 68.742188 -6.894531 65.582031 -3.925781 61.53125 -1.8125 C 57.476562 0.300781 52.8125 1.359375 47.53125 1.359375 C 43.894531 1.359375 40.707031 0.617188 37.96875 -0.859375 C 35.238281 -2.335938 33.019531 -4.40625 31.3125 -7.0625 C 29.601562 -9.726562 28.453125 -12.835938 27.859375 -16.390625 L 40.4375 -16.390625 C 45.070312 -16.390625 48.484375 -17.398438 50.671875 -19.421875 C 52.859375 -21.453125 53.953125 -24.175781 53.953125 -27.59375 C 53.953125 -30.957031 52.90625 -33.664062 50.8125 -35.71875 C 48.71875 -37.769531 45.710938 -38.796875 41.796875 -38.796875 L 27.859375 -38.796875 L 27.859375 -25.546875 C 27.859375 -17.890625 26.082031 -11.601562 22.53125 -6.6875 C 18.976562 -1.769531 13.925781 1.367188 7.375 2.734375 L 7.375 -90.15625 C 7.375 -91.976562 8.285156 -92.890625 10.109375 -92.890625 L 36.609375 -92.890625 C 46.710938 -92.890625 54.492188 -90.757812 59.953125 -86.5 C 65.421875 -82.238281 68.15625 -76.171875 68.15625 -68.296875 C 68.15625 -64.148438 67.164062 -60.414062 65.1875 -57.09375 C 63.207031 -53.769531 60.507812 -51.359375 57.09375 -49.859375 Z M 27.859375 -55.1875 L 36.609375 -55.1875 C 40.566406 -55.1875 43.46875 -56.050781 45.3125 -57.78125 C 47.15625 -59.507812 48.078125 -62.015625 48.078125 -65.296875 C 48.078125 -68.523438 47.175781 -70.96875 45.375 -72.625 C 43.582031 -74.289062 40.660156 -75.125 36.609375 -75.125 L 27.859375 -75.125 Z M 27.859375 -55.1875 "/></g></g></g><g fill="#000000" fill-opacity="1"><g transform="translate(847.663816, 127.107375)"><g><path d="M 51.359375 1.359375 C 44.078125 1.359375 37.507812 0.222656 31.65625 -2.046875 C 25.800781 -4.328125 20.789062 -7.582031 16.625 -11.8125 C 12.457031 -16.050781 9.257812 -21.117188 7.03125 -27.015625 C 4.800781 -32.910156 3.6875 -39.476562 3.6875 -46.71875 C 3.6875 -54.039062 4.820312 -60.640625 7.09375 -66.515625 C 9.375 -72.390625 12.617188 -77.382812 16.828125 -81.5 C 21.046875 -85.625 26.085938 -88.78125 31.953125 -90.96875 C 37.828125 -93.15625 44.34375 -94.25 51.5 -94.25 C 58.78125 -94.25 65.34375 -93.132812 71.1875 -90.90625 C 77.039062 -88.675781 82.050781 -85.476562 86.21875 -81.3125 C 90.382812 -77.144531 93.582031 -72.132812 95.8125 -66.28125 C 98.050781 -60.425781 99.171875 -53.859375 99.171875 -46.578125 C 99.171875 -39.242188 98.03125 -32.628906 95.75 -26.734375 C 93.476562 -20.835938 90.234375 -15.796875 86.015625 -11.609375 C 81.804688 -7.421875 76.773438 -4.210938 70.921875 -1.984375 C 65.078125 0.242188 58.554688 1.359375 51.359375 1.359375 Z M 51.359375 -17.203125 C 55.179688 -17.203125 58.742188 -17.863281 62.046875 -19.1875 C 65.347656 -20.507812 68.25 -22.445312 70.75 -25 C 73.257812 -27.550781 75.207031 -30.644531 76.59375 -34.28125 C 77.976562 -37.925781 78.671875 -42.070312 78.671875 -46.71875 C 78.671875 -51.3125 77.976562 -55.394531 76.59375 -58.96875 C 75.207031 -62.539062 73.257812 -65.566406 70.75 -68.046875 C 68.25 -70.535156 65.347656 -72.425781 62.046875 -73.71875 C 58.742188 -75.019531 55.179688 -75.671875 51.359375 -75.671875 C 47.628906 -75.671875 44.113281 -75.03125 40.8125 -73.75 C 37.507812 -72.476562 34.613281 -70.601562 32.125 -68.125 C 29.644531 -65.644531 27.695312 -62.601562 26.28125 -59 C 24.875 -55.40625 24.171875 -51.3125 24.171875 -46.71875 C 24.171875 -42.070312 24.875 -37.925781 26.28125 -34.28125 C 27.695312 -30.644531 29.644531 -27.550781 32.125 -25 C 34.613281 -22.445312 37.507812 -20.507812 40.8125 -19.1875 C 44.113281 -17.863281 47.628906 -17.203125 51.359375 -17.203125 Z M 51.359375 -17.203125 "/></g></g></g><g fill="#000000" fill-opacity="1"><g transform="translate(280.728708, 317.973847)"><g><path d="M 39.890625 1.359375 C 35.421875 1.359375 31.082031 0.800781 26.875 -0.3125 C 22.664062 -1.425781 18.863281 -3.144531 15.46875 -5.46875 C 12.070312 -7.789062 9.328125 -10.804688 7.234375 -14.515625 C 5.140625 -18.222656 3.957031 -22.671875 3.6875 -27.859375 C 3.6875 -29.679688 4.597656 -30.59375 6.421875 -30.59375 L 22.40625 -30.59375 C 24.082031 -30.59375 24.992188 -29.726562 25.140625 -28 C 25.773438 -23.769531 27.628906 -20.59375 30.703125 -18.46875 C 33.773438 -16.351562 37.519531 -15.296875 41.9375 -15.296875 C 44.207031 -15.296875 46.351562 -15.601562 48.375 -16.21875 C 50.40625 -16.832031 52.046875 -17.878906 53.296875 -19.359375 C 54.554688 -20.835938 55.1875 -22.851562 55.1875 -25.40625 C 55.1875 -27.632812 54.707031 -29.476562 53.75 -30.9375 C 52.789062 -32.394531 51.46875 -33.585938 49.78125 -34.515625 C 48.101562 -35.453125 46.160156 -36.226562 43.953125 -36.84375 C 41.742188 -37.457031 39.394531 -38.035156 36.90625 -38.578125 C 34.425781 -39.128906 31.914062 -39.75 29.375 -40.4375 C 26.59375 -41.207031 23.859375 -42.140625 21.171875 -43.234375 C 18.484375 -44.328125 16.035156 -45.796875 13.828125 -47.640625 C 11.617188 -49.484375 9.851562 -51.828125 8.53125 -54.671875 C 7.21875 -57.515625 6.5625 -61.054688 6.5625 -65.296875 C 6.5625 -70.347656 7.492188 -74.691406 9.359375 -78.328125 C 11.222656 -81.972656 13.738281 -84.976562 16.90625 -87.34375 C 20.070312 -89.71875 23.609375 -91.460938 27.515625 -92.578125 C 31.429688 -93.691406 35.414062 -94.25 39.46875 -94.25 C 43.382812 -94.25 47.242188 -93.734375 51.046875 -92.703125 C 54.847656 -91.679688 58.332031 -90.097656 61.5 -87.953125 C 64.664062 -85.816406 67.269531 -83.050781 69.3125 -79.65625 C 71.363281 -76.269531 72.570312 -72.210938 72.9375 -67.484375 C 73.070312 -65.566406 72.207031 -64.609375 70.34375 -64.609375 L 55.59375 -64.609375 C 53.957031 -64.609375 53 -65.472656 52.71875 -67.203125 C 51.988281 -71.023438 50.382812 -73.707031 47.90625 -75.25 C 45.425781 -76.800781 42.476562 -77.578125 39.0625 -77.578125 C 35.46875 -77.578125 32.566406 -76.789062 30.359375 -75.21875 C 28.148438 -73.65625 27.046875 -71.300781 27.046875 -68.15625 C 27.046875 -65.925781 27.601562 -64.140625 28.71875 -62.796875 C 29.832031 -61.453125 31.332031 -60.367188 33.21875 -59.546875 C 35.113281 -58.734375 37.289062 -58.0625 39.75 -57.53125 C 42.207031 -57.007812 44.753906 -56.453125 47.390625 -55.859375 C 50.078125 -55.273438 52.773438 -54.570312 55.484375 -53.75 C 58.203125 -52.925781 60.765625 -51.890625 63.171875 -50.640625 C 65.585938 -49.390625 67.738281 -47.785156 69.625 -45.828125 C 71.519531 -43.867188 73 -41.476562 74.0625 -38.65625 C 75.132812 -35.832031 75.671875 -32.414062 75.671875 -28.40625 C 75.671875 -23.851562 74.960938 -19.90625 73.546875 -16.5625 C 72.140625 -13.21875 70.21875 -10.394531 67.78125 -8.09375 C 65.34375 -5.789062 62.578125 -3.945312 59.484375 -2.5625 C 56.390625 -1.175781 53.15625 -0.175781 49.78125 0.4375 C 46.414062 1.050781 43.117188 1.359375 39.890625 1.359375 Z M 39.890625 1.359375 "/></g></g></g><g fill="#000000" fill-opacity="1"><g transform="translate(359.543747, 317.973847)"><g><path d="M 33.609375 -60.234375 L 42.484375 -60.234375 C 44.304688 -60.234375 45.21875 -59.320312 45.21875 -57.5 L 45.21875 -47.125 C 45.21875 -45.300781 44.304688 -44.390625 42.484375 -44.390625 L 33.609375 -44.390625 L 33.609375 -2.734375 C 33.609375 -0.910156 32.695312 0 30.875 0 L 15.84375 0 C 14.019531 0 13.109375 -0.910156 13.109375 -2.734375 L 13.109375 -44.390625 L 4.375 -44.390625 C 2.550781 -44.390625 1.640625 -45.300781 1.640625 -47.125 L 1.640625 -57.5 C 1.640625 -59.320312 2.550781 -60.234375 4.375 -60.234375 L 13.109375 -60.234375 C 13.109375 -67.296875 14.875 -73.046875 18.40625 -77.484375 C 21.9375 -81.921875 27.003906 -84.820312 33.609375 -86.1875 Z M 33.609375 -60.234375 "/></g></g></g><g fill="#000000" fill-opacity="1"><g transform="translate(406.395663, 317.973847)"><g><path d="M 49.453125 -60.234375 L 64.46875 -60.234375 C 66.289062 -60.234375 67.203125 -59.320312 67.203125 -57.5 L 67.203125 1.359375 C 59.191406 0.546875 53.476562 -3.226562 50.0625 -9.96875 C 45.6875 -1.863281 38.695312 2.1875 29.09375 2.1875 C 21.53125 2.1875 15.722656 -0.164062 11.671875 -4.875 C 7.617188 -9.59375 5.59375 -16.390625 5.59375 -25.265625 L 5.59375 -57.5 C 5.59375 -59.320312 6.503906 -60.234375 8.328125 -60.234375 L 23.359375 -60.234375 C 25.179688 -60.234375 26.09375 -59.320312 26.09375 -57.5 L 26.09375 -25.265625 C 26.09375 -21.804688 26.863281 -19.097656 28.40625 -17.140625 C 29.957031 -15.179688 32.097656 -14.203125 34.828125 -14.203125 C 37.109375 -14.203125 39.144531 -14.828125 40.9375 -16.078125 C 42.738281 -17.335938 44.148438 -19.070312 45.171875 -21.28125 C 46.203125 -23.488281 46.71875 -26.003906 46.71875 -28.828125 L 46.71875 -57.5 C 46.71875 -59.320312 47.628906 -60.234375 49.453125 -60.234375 Z M 49.453125 -60.234375 "/></g></g><g transform="translate(480.156712, 317.973847)"><g><path d="M 54.640625 -54.5 L 54.640625 -102.453125 C 61.285156 -101.078125 66.359375 -98.171875 69.859375 -93.734375 C 73.367188 -89.296875 75.125 -83.550781 75.125 -76.5 L 75.125 1.359375 C 66.75 1.359375 60.898438 -2.117188 57.578125 -9.078125 C 54.929688 -5.523438 51.59375 -2.757812 47.5625 -0.78125 C 43.539062 1.195312 39.023438 2.1875 34.015625 2.1875 C 29.597656 2.1875 25.546875 1.398438 21.859375 -0.171875 C 18.171875 -1.742188 14.992188 -3.960938 12.328125 -6.828125 C 9.660156 -9.691406 7.597656 -13.101562 6.140625 -17.0625 C 4.691406 -21.03125 3.96875 -25.40625 3.96875 -30.1875 C 3.96875 -34.925781 4.691406 -39.265625 6.140625 -43.203125 C 7.597656 -47.140625 9.660156 -50.539062 12.328125 -53.40625 C 14.992188 -56.269531 18.171875 -58.488281 21.859375 -60.0625 C 25.546875 -61.632812 29.597656 -62.421875 34.015625 -62.421875 C 38.203125 -62.421875 42.035156 -61.738281 45.515625 -60.375 C 49.003906 -59.007812 52.046875 -57.050781 54.640625 -54.5 Z M 40.296875 -14.203125 C 43.078125 -14.203125 45.546875 -14.875 47.703125 -16.21875 C 49.867188 -17.5625 51.566406 -19.425781 52.796875 -21.8125 C 54.023438 -24.207031 54.640625 -26.953125 54.640625 -30.046875 C 54.640625 -33.140625 54.023438 -35.878906 52.796875 -38.265625 C 51.566406 -40.660156 49.867188 -42.53125 47.703125 -43.875 C 45.546875 -45.21875 43.078125 -45.890625 40.296875 -45.890625 C 37.515625 -45.890625 35.039062 -45.21875 32.875 -43.875 C 30.71875 -42.53125 29.023438 -40.660156 27.796875 -38.265625 C 26.566406 -35.878906 25.953125 -33.140625 25.953125 -30.046875 C 25.953125 -26.953125 26.566406 -24.207031 27.796875 -21.8125 C 29.023438 -19.425781 30.71875 -17.5625 32.875 -16.21875 C 35.039062 -14.875 37.515625 -14.203125 40.296875 -14.203125 Z M 40.296875 -14.203125 "/></g></g></g><g fill="#000000" fill-opacity="1"><g transform="translate(561.976821, 317.973847)"><g><path d="M 15.84375 -72.125 C 13.34375 -72.125 10.941406 -72.53125 8.640625 -73.34375 C 6.335938 -74.164062 4.457031 -75.394531 3 -77.03125 C 1.539062 -78.675781 0.8125 -80.726562 0.8125 -83.1875 C 0.8125 -85.601562 1.539062 -87.628906 3 -89.265625 C 4.457031 -90.898438 6.335938 -92.140625 8.640625 -92.984375 C 10.941406 -93.828125 13.34375 -94.25 15.84375 -94.25 C 18.300781 -94.25 20.679688 -93.828125 22.984375 -92.984375 C 25.285156 -92.140625 27.175781 -90.898438 28.65625 -89.265625 C 30.132812 -87.628906 30.875 -85.601562 30.875 -83.1875 C 30.875 -80.726562 30.132812 -78.675781 28.65625 -77.03125 C 27.175781 -75.394531 25.285156 -74.164062 22.984375 -73.34375 C 20.679688 -72.53125 18.300781 -72.125 15.84375 -72.125 Z M 24.3125 0 L 9.28125 0 C 7.46875 0 6.5625 -0.910156 6.5625 -2.734375 L 6.5625 -61.609375 C 13.207031 -60.242188 18.28125 -57.335938 21.78125 -52.890625 C 25.289062 -48.453125 27.046875 -42.707031 27.046875 -35.65625 L 27.046875 -2.734375 C 27.046875 -0.910156 26.132812 0 24.3125 0 Z M 24.3125 0 "/></g></g></g><g fill="#000000" fill-opacity="1"><g transform="translate(594.759516, 317.973847)"><g><path d="M 38.25 2.1875 C 32.875 2.1875 28.054688 1.398438 23.796875 -0.171875 C 19.546875 -1.742188 15.925781 -3.972656 12.9375 -6.859375 C 9.957031 -9.753906 7.691406 -13.171875 6.140625 -17.109375 C 4.597656 -21.046875 3.828125 -25.359375 3.828125 -30.046875 C 3.828125 -34.785156 4.609375 -39.125 6.171875 -43.0625 C 7.742188 -47 10.019531 -50.410156 13 -53.296875 C 15.988281 -56.191406 19.597656 -58.4375 23.828125 -60.03125 C 28.066406 -61.625 32.875 -62.421875 38.25 -62.421875 C 43.570312 -62.421875 48.347656 -61.625 52.578125 -60.03125 C 56.816406 -58.4375 60.414062 -56.191406 63.375 -53.296875 C 66.332031 -50.410156 68.597656 -47 70.171875 -43.0625 C 71.742188 -39.125 72.53125 -34.785156 72.53125 -30.046875 C 72.53125 -23.722656 71.160156 -18.132812 68.421875 -13.28125 C 65.691406 -8.4375 61.765625 -4.644531 56.640625 -1.90625 C 51.523438 0.820312 45.394531 2.1875 38.25 2.1875 Z M 38.25 -13.796875 C 41.25 -13.796875 43.785156 -14.5 45.859375 -15.90625 C 47.929688 -17.320312 49.5 -19.25 50.5625 -21.6875 C 51.632812 -24.125 52.171875 -26.863281 52.171875 -29.90625 C 52.171875 -33.007812 51.632812 -35.8125 50.5625 -38.3125 C 49.5 -40.820312 47.929688 -42.800781 45.859375 -44.25 C 43.785156 -45.707031 41.25 -46.4375 38.25 -46.4375 C 35.238281 -46.4375 32.6875 -45.695312 30.59375 -44.21875 C 28.5 -42.738281 26.90625 -40.742188 25.8125 -38.234375 C 24.71875 -35.734375 24.171875 -32.957031 24.171875 -29.90625 C 24.171875 -26.90625 24.707031 -24.1875 25.78125 -21.75 C 26.851562 -19.3125 28.4375 -17.375 30.53125 -15.9375 C 32.625 -14.507812 35.195312 -13.796875 38.25 -13.796875 Z M 38.25 -13.796875 "/></g></g></g></g></g></svg>